<?xml version="1.0" standalone="yes"?>

<svg version="1.1" viewBox="0.0 0.0 575.0 200.0" fill="none" stroke="none" stroke-linecap="square"
     stroke-miterlimit="10" xmlns="http://www.w3.org/2000/svg" xmlns:xlink="http://www.w3.org/1999/xlink">
	<clipPath id="g11afbf6e77_0_8.0">
		<path d="m0 0l960.0 0l0 720.0l-960.0 0l0 -720.0z" clip-rule="nonzero"></path>
	</clipPath>
	<g clip-path="url(#g11afbf6e77_0_8.0)">
		<path fill="#000000" fill-opacity="0.0" d="m0 0l960.0 0l0 720.0l-960.0 0z" fill-rule="nonzero"></path>
		<path fill="#000000" fill-opacity="0.0" d="m1.4895678 2.332429l555.65356 0l0 190.80315l-555.65356 0z"
		      fill-rule="nonzero"></path>
		<path fill="#434343"
		      d="m79.7226 50.274933q-2.9375 1.75 -5.71875 5.46875q-2.78125 3.71875 -5.28125 8.6875q-2.5 4.96875 -4.59375 10.8125q-2.0937538 5.84375 -3.6250038 11.875q-1.53125 6.03125 -2.375 11.875q-0.84375 5.84375 -0.84375 10.78125q0 3.25 0.4375 5.96875q0.4375 2.71875 1.3125 4.6875q0.875 1.96875 2.28125 3.0625q1.40625 1.09375 3.4062538 1.09375q3.25 0 6.46875 -2.5q3.21875 -2.5 6.21875 -6.8125q3.0 -4.3125 5.5625 -10.03125q2.5625 -5.71875 4.4375 -12.1875q1.875 -6.46875 2.96875 -13.28125q1.09375 -6.8125 1.09375 -13.25q0 -5.5625 -0.65625 -9.78125q-0.65625 -4.21875 -2.46875 -7.03125q-1.8125 -2.8125 -5.0 -4.21875q-3.1875 -1.40625 -8.25 -1.40625q-7.3125 0 -14.000004 2.28125q-6.6875 2.28125 -11.78125 6.5625q-5.09375 4.28125 -8.09375 10.375q-3.0 6.09375 -3.0 13.71875q0 1.875 0.21875 3.03125q0.21875 1.15625 0.4375 1.875q0.21875 0.71875 0.4375 1.15625q0.21875 0.4375 0.21875 0.8125q-6.125 0 -9.53125 -2.4375q-3.40625 -2.4375 -3.40625 -8.3125q0 -4.5 1.9375 -8.8125q1.9375 -4.3125 5.4375 -8.21875q3.5 -3.90625 8.28125 -7.1875q4.78125 -3.28125 10.53125 -5.65625q5.75 -2.375 12.187504 -3.71875q6.4375 -1.34375 13.1875 -1.34375q8.4375 0 14.21875 2.4375q5.78125 2.4375 9.34375 6.78125q3.5625 4.34375 5.15625 10.375q1.59375 6.03125 1.59375 13.15625q0 6.1875 -1.15625 13.34375q-1.15625 7.15625 -3.625 14.25q-2.46875 7.09375 -6.25 13.6875q-3.78125 6.59375 -9.03125 11.625q-5.25 5.03125 -12.0 8.0625q-6.75 3.03125 -15.125004 3.03125q-5.0625 0 -9.25 -1.375q-4.1875 -1.375 -7.25 -4.4375q-3.0625 -3.0625 -4.75 -7.96875q-1.6875 -4.90625 -1.6875 -11.90625q0 -5.1875 0.96875 -11.65625q0.96875 -6.46875 2.90625 -13.125q1.9375 -6.65625 4.84375 -13.03125q2.90625 -6.375 6.75 -11.3125q3.84375 -4.9375 8.65625 -7.9375q4.812504 -3.0 10.562504 -3.0q1.625 0 3.25 0.1875q1.625 0.1875 3.4375 0.875zm18.3125 115.9375l21.375 -100.75l18.437492 0l-2.0625 9.625q2.8125 -2.375 6.4375 -3.9375q3.625 -1.5625 8.5 -1.5625q3.25 0 6.125 1.03125q2.875 1.03125 4.96875 3.375q2.09375 2.34375 3.3125 6.21875q1.21875 3.875 1.21875 9.5625q0 4.3125 -0.59375 9.34375q-0.59375 5.03125 -2.03125 10.0625q-1.4375 5.03125 -3.78125 9.6875q-2.34375 4.65625 -5.84375 8.21875q-3.5 3.5625 -8.28125 5.71875q-4.78125 2.15625 -10.96875 2.15625q-2.4375 0 -4.25 -0.375q-1.8125 -0.375 -3.0937424 -1.0q-1.28125 -0.625 -2.125 -1.46875q-0.84375 -0.84375 -1.40625 -1.71875l-6.625 31.1875l-19.3125 4.625zm28.0 -45.3125q0.375 1.0625 1.53125 2.0q1.1562424 0.9375 3.3437424 0.9375q3.375 0 6.0 -1.71875q2.625 -1.71875 4.625 -4.5625q2.0 -2.84375 3.375 -6.46875q1.375 -3.625 2.25 -7.4375q0.875 -3.8125 1.28125 -7.53125q0.40625 -3.71875 0.40625 -6.71875q0 -3.6875 -0.6875 -5.8125q-0.6875 -2.125 -1.65625 -3.1875q-0.96875 -1.0625 -2.09375 -1.34375q-1.125 -0.28125 -2.0 -0.28125q-2.1875 0 -4.59375 1.59375q-2.40625 1.59375 -4.21875 4.71875l-7.5624924 35.8125zm96.99999 -9.625q-2.6875 4.5 -6.15625 8.75q-3.46875 4.25 -7.8125 7.5625q-4.34375 3.3125 -9.625 5.34375q-5.28125 2.03125 -11.59375 2.03125q-4.5625 0 -8.25 -1.15625q-3.6875 -1.15625 -6.3125 -3.59375q-2.625 -2.4375 -4.03125 -6.28125q-1.40625 -3.84375 -1.40625 -9.28125q0 -3.6875 0.75 -8.5q0.75 -4.8125 2.375 -9.875q1.625 -5.0625 4.3125 -9.9375q2.6875 -4.875 6.5 -8.71875q3.8125 -3.84375 8.9375 -6.1875q5.125 -2.34375 11.6875 -2.34375q4.3125 0 7.03125 1.03125q2.71875 1.03125 4.3125 2.71875q1.59375 1.6875 2.1875 3.90625q0.59375 2.21875 0.59375 4.59375q0 5.5625 -2.4375 10.34375q-2.4375 4.78125 -6.53125 8.34375q-4.09375 3.5625 -9.40625 5.75q-5.3125 2.1875 -11.0625 2.5625q-0.125 1.4375 -0.21875 2.71875q-0.09375 1.28125 -0.09375 2.40625q0 3.25 0.59375 5.34375q0.59375 2.09375 1.75 3.28125q1.15625 1.1875 2.875 1.65625q1.71875 0.46875 4.03125 0.46875q3.8125 0 6.90625 -1.0q3.09375 -1.0 5.78125 -2.75q2.6875 -1.75 5.09375 -4.125q2.40625 -2.375 4.84375 -5.0625l4.375 0zm-34.9375 -9.0625q3.625 -0.25 7.0 -2.0625q3.375 -1.8125 5.9375 -4.71875q2.5625 -2.90625 4.09375 -6.625q1.53125 -3.71875 1.53125 -7.71875q0 -2.375 -0.6875 -3.8125q-0.6875 -1.4375 -2.5 -1.4375q-2.4375 0 -4.78125 2.34375q-2.34375 2.34375 -4.40625 6.09375q-2.0625 3.75 -3.65625 8.46875q-1.59375 4.71875 -2.53125 9.46875zm100.5625 9.0625q-2.6875 7.875 -5.78125 12.5625q-3.09375 4.6875 -6.25 7.15625q-3.15625 2.46875 -6.1875 3.21875q-3.03125 0.75 -5.59375 0.75q-4.25 0 -7.125 -1.21875q-2.875 -1.21875 -4.625 -3.25q-1.75 -2.03125 -2.53125 -4.625q-0.78125 -2.59375 -0.78125 -5.34375q0 -3.25 0.90625 -7.59375q0.90625 -4.34375 1.96875 -8.90625q1.0625 -4.5625 1.96875 -8.8125q0.90625 -4.25 0.90625 -7.3125q0 -6.5625 -4.625 -6.5625q-1.75 0 -3.25 0.9375q-1.5 0.9375 -2.75 2.53125q-1.25 1.59375 -2.25 3.75q-1.0 2.15625 -1.75 4.59375l-8.6875 41.0625l-18.4375 0l13.5625 -64.0l18.4375 0l-1.375 6.625q2.0625 -2.3125 4.09375 -3.71875q2.03125 -1.40625 3.96875 -2.15625q1.9375 -0.75 3.65625 -1.0q1.71875 -0.25 3.21875 -0.25q3.0625 0 5.6875 0.8125q2.625 0.8125 4.53125 2.5625q1.90625 1.75 2.96875 4.5q1.0625 2.75 1.0625 6.5625q0 2.5625 -0.46875 5.53125q-0.46875 2.96875 -1.15625 6.0625q-0.6875 3.09375 -1.46875 6.15625q-0.78125 3.0625 -1.46875 5.875q-0.6875 2.8125 -1.15625 5.21875q-0.46875 2.40625 -0.46875 4.21875q0 2.375 1.09375 3.875q1.09375 1.5 4.03125 1.5q2.0625 0 3.625 -0.8125q1.5625 -0.8125 2.8125 -2.3125q1.25 -1.5 2.28125 -3.59375q1.03125 -2.09375 2.03125 -4.59375l5.375 0z"
		      fill-rule="nonzero"></path>
		<path fill="#434343"
		      d="m323.4726 136.77493l-2.25 -30.25q-0.6875 -9.25 -0.6875 -12.1875q0 -8.4375 2.40625 -15.53125q2.40625 -7.09375 8.53125 -15.21875q-7.3125 0 -14.90625 3.5q-7.59375 3.5 -11.125 8.0625q-3.53125 4.5625 -3.53125 9.1875q0 2.125 1.3125 4.5q1.6875 3.0 1.6875 4.5625q0 1.4375 -0.875 2.3125q-0.875 0.875 -2.25 0.875q-2.0 0 -3.5 -2.0625q-1.875 -2.75 -1.875 -6.8125q0 -7.625 5.75 -14.6875q5.75 -7.0625 15.75 -10.4375q6.4375 -2.1875 18.75 -3.0q3.3125 -0.25 6.75 -0.625q-8.4375 12.375 -11.0 20.65625q-2.5625 8.28125 -2.5625 22.46875q0 10.875 1.125 19.875l12.0 -12.8125l10.25 -10.5q15.5 -15.9375 20.875 -25.125q4.0625 -6.9375 4.0625 -12.625q0 -3.125 -1.4375 -6.875q-0.9375 -2.375 -0.9375 -3.625q0 -1.6875 1.28125 -2.9375q1.28125 -1.25 3.03125 -1.25q2.375 0 4.0 2.4375q1.625 2.4375 1.625 7.625q0 5.0625 -2.125 10.71875q-2.125 5.65625 -8.9375 14.40625q-6.8125 8.75 -21.0625 23.1875q-14.9375 15.125 -30.125 32.1875zm79.25 -82.0q1.9375 0 3.1875 1.28125q1.25 1.28125 1.25 3.28125q0 2.75 -1.90625 4.84375q-1.90625 2.09375 -4.28125 2.09375q-1.875 0 -3.125 -1.3125q-1.25 -1.3125 -1.25 -3.4375q0 -2.8125 1.8125 -4.78125q1.8125 -1.96875 4.3125 -1.96875zm-24.625 41.375l-2.75 -2.125q6.25 -6.875 11.40625 -9.78125q5.15625 -2.90625 8.78125 -2.90625q2.0 0 3.0625 0.875q1.0625 0.875 1.0625 2.375q0 1.8125 -4.0625 15.375q-6.625 22.1875 -6.625 26.75q0 0.875 0.4375 1.46875q0.4375 0.59375 0.9375 0.59375q2.0 0 10.25 -7.75l2.4375 2.375q-8.5625 8.0625 -12.5 10.3125q-3.9375 2.25 -6.4375 2.25q-2.1875 0 -3.46875 -1.375q-1.28125 -1.375 -1.28125 -3.8125q0 -7.8125 9.375 -38.1875q0.4375 -1.4375 0.4375 -2.5625q0 -1.25 -1.125 -1.25q-1.25 0 -2.84375 1.0q-1.59375 1.0 -7.09375 6.375zm46.1875 -24.125l9.9375 -3.8125l-4.5 17.5l12.9375 0l-1.0 4.4375l-12.9375 0l-5.5 20.9375q-2.5625 9.4375 -2.5625 13.125q0 1.6875 0.71875 2.4375q0.71875 0.75 1.96875 0.75q1.9375 0 5.9375 -2.3125q5.25 -3.0625 10.0 -6.9375l2.375 2.875q-13.6875 10.3125 -18.3125 12.625q-4.625 2.3125 -7.4375 2.3125q-2.3125 0 -3.65625 -1.6875q-1.34375 -1.6875 -1.34375 -5.5q0 -4.5 2.375 -13.75l6.4375 -24.875l-10.125 0l1.125 -4.4375l10.0625 0l3.5 -13.6875zm66.0625 8.5625l4.125 -0.875l-4.6875 15.8125q-2.8125 9.4375 -5.3125 21.75q-1.375 6.6875 -1.375 8.625q0 1.9375 1.5625 1.9375q1.0 0 3.1875 -1.3125q3.875 -2.3125 7.4375 -5.75l2.0 2.4375q-7.125 6.5 -9.125 7.875q-4.0 2.75 -7.625 4.0625q-2.375 0.875 -4.625 0.875q-1.625 0 -2.4375 -0.75q-0.8125 -0.75 -0.8125 -2.1875q0 -0.9375 0.5 -2.5625l2.5 -8.5q-5.375 6.4375 -12.8125 11.0625q-4.5625 2.875 -8.375 2.875q-3.625 0 -5.5625 -2.5625q-2.625 -3.4375 -2.625 -9.0q0 -6.625 3.53125 -14.75q3.53125 -8.125 9.46875 -14.75q5.9375 -6.625 12.5 -9.75q5.0625 -2.375 13.0 -2.375q2.0 0 4.0625 0.25l1.5 -2.4375zm-7.75 9.5625q-3.375 -0.6875 -5.6875 -0.6875q-5.625 0 -9.8125 3.09375q-4.1875 3.09375 -7.78125 11.125q-3.59375 8.03125 -3.59375 16.03125q0 4.25 1.4375 6.125q1.4375 1.875 3.75 1.875q4.3125 0 9.25 -4.65625q4.9375 -4.65625 7.25 -13.40625l5.1875 -19.5zm51.625 28.375l2.0625 2.75q-15.3125 14.5625 -26.25 14.5625q-4.4375 0 -6.78125 -3.0q-2.34375 -3.0 -2.34375 -9.625q0 -13.375 8.125 -26.625q9.125 -15.0625 21.8125 -15.0625q4.4375 0 6.78125 2.21875q2.34375 2.21875 2.34375 6.09375q0 4.0625 -2.8125 8.0q-2.8125 3.9375 -10.0625 8.1875q-3.625 2.0625 -15.5 7.4375q-0.5625 3.375 -0.5625 6.4375q0 4.4375 1.40625 6.1875q1.40625 1.75 4.09375 1.75q2.5625 0 5.625 -1.4375q4.125 -1.9375 12.0625 -7.875zm-21.875 -9.0625q10.0625 -4.5 15.125 -9.6875q3.4375 -3.625 3.4375 -7.1875q0 -2.6875 -1.40625 -4.28125q-1.40625 -1.59375 -3.65625 -1.59375q-2.3125 0 -4.5 1.75q-2.9375 2.3125 -4.9375 7.0q-2.875 6.875 -4.0625 14.0z"
		      fill-rule="nonzero"></path>
		<path fill="#000000" fill-opacity="0.0" d="m0 0l555.65356 0l0 190.80315l-555.65356 0z"
		      fill-rule="nonzero"></path>
		<path fill="#ffffff"
		      d="m78.23303 47.942505q-2.9375 1.75 -5.71875 5.46875q-2.78125 3.71875 -5.28125 8.6875q-2.5 4.96875 -4.59375 10.8125q-2.09375 5.84375 -3.625 11.875q-1.53125 6.03125 -2.375 11.875q-0.84375 5.84375 -0.84375 10.78125q0 3.25 0.4375 5.96875q0.4375 2.71875 1.3125 4.6875q0.875 1.96875 2.28125 3.0625q1.40625 1.09375 3.40625 1.09375q3.25 0 6.46875 -2.5q3.21875 -2.5 6.21875 -6.8125q3.0 -4.3125 5.5625 -10.03125q2.5625 -5.71875 4.4375 -12.1875q1.875 -6.46875 2.96875 -13.28125q1.09375 -6.8125 1.09375 -13.25q0 -5.5625 -0.65625 -9.78125q-0.65625 -4.21875 -2.46875 -7.03125q-1.8125 -2.8125 -5.0 -4.21875q-3.1875 -1.40625 -8.25 -1.40625q-7.3125 0 -14.0 2.28125q-6.6875 2.28125 -11.78125 6.5625q-5.09375 4.28125 -8.09375 10.375q-3.0 6.09375 -3.0 13.71875q0 1.875 0.21875 3.03125q0.21875 1.15625 0.4375 1.875q0.21875 0.71875 0.4375 1.15625q0.21875 0.4375 0.21875 0.8125q-6.125 0 -9.53125 -2.4375q-3.40625 -2.4375 -3.40625 -8.3125q0 -4.5 1.9375 -8.8125q1.9375 -4.3125 5.4375 -8.21875q3.5 -3.90625 8.28125 -7.1875q4.78125 -3.28125 10.53125 -5.65625q5.75 -2.375 12.1875 -3.71875q6.4375 -1.34375 13.1875 -1.34375q8.4375 0 14.21875 2.4375q5.78125 2.4375 9.34375 6.78125q3.5625 4.34375 5.15625 10.375q1.59375 6.03125 1.59375 13.15625q0 6.1875 -1.15625 13.34375q-1.15625 7.15625 -3.625 14.25q-2.46875 7.09375 -6.25 13.6875q-3.78125 6.59375 -9.03125 11.625q-5.25 5.03125 -12.0 8.0625q-6.75 3.03125 -15.125 3.03125q-5.0625 0 -9.25 -1.375q-4.1875 -1.375 -7.25 -4.4375q-3.0625 -3.0625 -4.75 -7.96875q-1.6875 -4.90625 -1.6875 -11.90625q0 -5.1875 0.96875 -11.65625q0.96875 -6.46875 2.90625 -13.125q1.9375 -6.65625 4.84375 -13.03125q2.90625 -6.375 6.75 -11.3125q3.84375 -4.9375 8.65625 -7.9375q4.8125 -3.0 10.5625 -3.0q1.625 0 3.25 0.1875q1.625 0.1875 3.4375 0.875zm18.3125 115.9375l21.375 -100.75l18.4375 0l-2.0625 9.625q2.8125 -2.375 6.4375 -3.9375q3.625 -1.5625 8.5 -1.5625q3.25 0 6.125 1.03125q2.875 1.03125 4.96875 3.375q2.09375 2.34375 3.3125 6.21875q1.21875 3.875 1.21875 9.5625q0 4.3125 -0.59375 9.34375q-0.59375 5.03125 -2.03125 10.0625q-1.4375 5.03125 -3.78125 9.6875q-2.34375 4.65625 -5.84375 8.21875q-3.5 3.5625 -8.28125 5.71875q-4.78125 2.15625 -10.96875 2.15625q-2.4375 0 -4.25 -0.375q-1.8125 -0.375 -3.09375 -1.0q-1.28125 -0.625 -2.125 -1.46875q-0.84375 -0.84375 -1.40625 -1.71875l-6.625 31.1875l-19.3125 4.625zm28.0 -45.3125q0.375 1.0625 1.53125 2.0q1.15625 0.9375 3.34375 0.9375q3.375 0 6.0 -1.71875q2.625 -1.71875 4.625 -4.5625q2.0 -2.84375 3.375 -6.46875q1.375 -3.625 2.25 -7.4375q0.875 -3.8125 1.28125 -7.53125q0.40625 -3.71875 0.40625 -6.71875q0 -3.6875 -0.6875 -5.8125q-0.6875 -2.125 -1.65625 -3.1875q-0.96875 -1.0625 -2.09375 -1.34375q-1.125 -0.28125 -2.0 -0.28125q-2.1875 0 -4.59375 1.59375q-2.40625 1.59375 -4.21875 4.71875l-7.5625 35.8125zm97.0 -9.625q-2.6875 4.5 -6.15625 8.75q-3.46875 4.25 -7.8125 7.5625q-4.34375 3.3125 -9.625 5.34375q-5.28125 2.03125 -11.59375 2.03125q-4.5625 0 -8.25 -1.15625q-3.6875 -1.15625 -6.3125 -3.59375q-2.625 -2.4375 -4.03125 -6.28125q-1.40625 -3.84375 -1.40625 -9.28125q0 -3.6875 0.75 -8.5q0.75 -4.8125 2.375 -9.875q1.625 -5.0625 4.3125 -9.9375q2.6875 -4.875 6.5 -8.71875q3.8125 -3.84375 8.9375 -6.1875q5.125 -2.34375 11.6875 -2.34375q4.3125 0 7.03125 1.03125q2.71875 1.03125 4.3125 2.71875q1.59375 1.6875 2.1875 3.90625q0.59375 2.21875 0.59375 4.59375q0 5.5625 -2.4375 10.34375q-2.4375 4.78125 -6.53125 8.34375q-4.09375 3.5625 -9.40625 5.75q-5.3125 2.1875 -11.0625 2.5625q-0.125 1.4375 -0.21875 2.71875q-0.09375 1.28125 -0.09375 2.40625q0 3.25 0.59375 5.34375q0.59375 2.09375 1.75 3.28125q1.15625 1.1875 2.875 1.65625q1.71875 0.46875 4.03125 0.46875q3.8125 0 6.90625 -1.0q3.09375 -1.0 5.78125 -2.75q2.6875 -1.75 5.09375 -4.125q2.40625 -2.375 4.84375 -5.0625l4.375 0zm-34.9375 -9.0625q3.625 -0.25 7.0 -2.0625q3.375 -1.8125 5.9375 -4.71875q2.5625 -2.90625 4.09375 -6.625q1.53125 -3.71875 1.53125 -7.71875q0 -2.375 -0.6875 -3.8125q-0.6875 -1.4375 -2.5 -1.4375q-2.4375 0 -4.78125 2.34375q-2.34375 2.34375 -4.40625 6.09375q-2.0625 3.75 -3.65625 8.46875q-1.59375 4.71875 -2.53125 9.46875zm100.5625 9.0625q-2.6875 7.875 -5.78125 12.5625q-3.09375 4.6875 -6.25 7.15625q-3.15625 2.46875 -6.1875 3.21875q-3.03125 0.75 -5.59375 0.75q-4.25 0 -7.125 -1.21875q-2.875 -1.21875 -4.625 -3.25q-1.75 -2.03125 -2.53125 -4.625q-0.78125 -2.59375 -0.78125 -5.34375q0 -3.25 0.90625 -7.59375q0.90625 -4.34375 1.96875 -8.90625q1.0625 -4.5625 1.96875 -8.8125q0.90625 -4.25 0.90625 -7.3125q0 -6.5625 -4.625 -6.5625q-1.75 0 -3.25 0.9375q-1.5 0.9375 -2.75 2.53125q-1.25 1.59375 -2.25 3.75q-1.0 2.15625 -1.75 4.59375l-8.6875 41.0625l-18.4375 0l13.5625 -64.0l18.4375 0l-1.375 6.625q2.0625 -2.3125 4.09375 -3.71875q2.03125 -1.40625 3.96875 -2.15625q1.9375 -0.75 3.65625 -1.0q1.71875 -0.25 3.21875 -0.25q3.0625 0 5.6875 0.8125q2.625 0.8125 4.53125 2.5625q1.90625 1.75 2.96875 4.5q1.0625 2.75 1.0625 6.5625q0 2.5625 -0.46875 5.53125q-0.46875 2.96875 -1.15625 6.0625q-0.6875 3.09375 -1.46875 6.15625q-0.78125 3.0625 -1.46875 5.875q-0.6875 2.8125 -1.15625 5.21875q-0.46875 2.40625 -0.46875 4.21875q0 2.375 1.09375 3.875q1.09375 1.5 4.03125 1.5q2.0625 0 3.625 -0.8125q1.5625 -0.8125 2.8125 -2.3125q1.25 -1.5 2.28125 -3.59375q1.03125 -2.09375 2.03125 -4.59375l5.375 0z"
		      fill-rule="nonzero"></path>
		<path fill="#ffffff"
		      d="m321.98303 134.4425l-2.25 -30.25q-0.6875 -9.25 -0.6875 -12.1875q0 -8.4375 2.40625 -15.53125q2.40625 -7.09375 8.53125 -15.21875q-7.3125 0 -14.90625 3.5q-7.59375 3.5 -11.125 8.0625q-3.53125 4.5625 -3.53125 9.1875q0 2.125 1.3125 4.5q1.6875 3.0 1.6875 4.5625q0 1.4375 -0.875 2.3125q-0.875 0.875 -2.25 0.875q-2.0 0 -3.5 -2.0625q-1.875 -2.75 -1.875 -6.8125q0 -7.625 5.75 -14.6875q5.75 -7.0625 15.75 -10.4375q6.4375 -2.1875 18.75 -3.0q3.3125 -0.25 6.75 -0.625q-8.4375 12.375 -11.0 20.65625q-2.5625 8.28125 -2.5625 22.46875q0 10.875 1.125 19.875l12.0 -12.8125l10.25 -10.5q15.5 -15.9375 20.875 -25.125q4.0625 -6.9375 4.0625 -12.625q0 -3.125 -1.4375 -6.875q-0.9375 -2.375 -0.9375 -3.625q0 -1.6875 1.28125 -2.9375q1.28125 -1.25 3.03125 -1.25q2.375 0 4.0 2.4375q1.625 2.4375 1.625 7.625q0 5.0625 -2.125 10.71875q-2.125 5.65625 -8.9375 14.40625q-6.8125 8.75 -21.0625 23.1875q-14.9375 15.125 -30.125 32.1875zm79.25 -82.0q1.9375 0 3.1875 1.28125q1.25 1.28125 1.25 3.28125q0 2.75 -1.90625 4.84375q-1.90625 2.09375 -4.28125 2.09375q-1.875 0 -3.125 -1.3125q-1.25 -1.3125 -1.25 -3.4375q0 -2.8125 1.8125 -4.78125q1.8125 -1.96875 4.3125 -1.96875zm-24.625 41.375l-2.75 -2.125q6.25 -6.875 11.40625 -9.78125q5.15625 -2.90625 8.78125 -2.90625q2.0 0 3.0625 0.875q1.0625 0.875 1.0625 2.375q0 1.8125 -4.0625 15.375q-6.625 22.1875 -6.625 26.75q0 0.875 0.4375 1.46875q0.4375 0.59375 0.9375 0.59375q2.0 0 10.25 -7.75l2.4375 2.375q-8.5625 8.0625 -12.5 10.3125q-3.9375 2.25 -6.4375 2.25q-2.1875 0 -3.46875 -1.375q-1.28125 -1.375 -1.28125 -3.8125q0 -7.8125 9.375 -38.1875q0.4375 -1.4375 0.4375 -2.5625q0 -1.25 -1.125 -1.25q-1.25 0 -2.84375 1.0q-1.59375 1.0 -7.09375 6.375zm46.1875 -24.125l9.9375 -3.8125l-4.5 17.5l12.9375 0l-1.0 4.4375l-12.9375 0l-5.5 20.9375q-2.5625 9.4375 -2.5625 13.125q0 1.6875 0.71875 2.4375q0.71875 0.75 1.96875 0.75q1.9375 0 5.9375 -2.3125q5.25 -3.0625 10.0 -6.9375l2.375 2.875q-13.6875 10.3125 -18.3125 12.625q-4.625 2.3125 -7.4375 2.3125q-2.3125 0 -3.65625 -1.6875q-1.34375 -1.6875 -1.34375 -5.5q0 -4.5 2.375 -13.75l6.4375 -24.875l-10.125 0l1.125 -4.4375l10.0625 0l3.5 -13.6875zm66.0625 8.5625l4.125 -0.875l-4.6875 15.8125q-2.8125 9.4375 -5.3125 21.75q-1.375 6.6875 -1.375 8.625q0 1.9375 1.5625 1.9375q1.0 0 3.1875 -1.3125q3.875 -2.3125 7.4375 -5.75l2.0 2.4375q-7.125 6.5 -9.125 7.875q-4.0 2.75 -7.625 4.0625q-2.375 0.875 -4.625 0.875q-1.625 0 -2.4375 -0.75q-0.8125 -0.75 -0.8125 -2.1875q0 -0.9375 0.5 -2.5625l2.5 -8.5q-5.375 6.4375 -12.8125 11.0625q-4.5625 2.875 -8.375 2.875q-3.625 0 -5.5625 -2.5625q-2.625 -3.4375 -2.625 -9.0q0 -6.625 3.53125 -14.75q3.53125 -8.125 9.46875 -14.75q5.9375 -6.625 12.5 -9.75q5.0625 -2.375 13.0 -2.375q2.0 0 4.0625 0.25l1.5 -2.4375zm-7.75 9.5625q-3.375 -0.6875 -5.6875 -0.6875q-5.625 0 -9.8125 3.09375q-4.1875 3.09375 -7.78125 11.125q-3.59375 8.03125 -3.59375 16.03125q0 4.25 1.4375 6.125q1.4375 1.875 3.75 1.875q4.3125 0 9.25 -4.65625q4.9375 -4.65625 7.25 -13.40625l5.1875 -19.5zm51.625 28.375l2.0625 2.75q-15.3125 14.5625 -26.25 14.5625q-4.4375 0 -6.78125 -3.0q-2.34375 -3.0 -2.34375 -9.625q0 -13.375 8.125 -26.625q9.125 -15.0625 21.8125 -15.0625q4.4375 0 6.78125 2.21875q2.34375 2.21875 2.34375 6.09375q0 4.0625 -2.8125 8.0q-2.8125 3.9375 -10.0625 8.1875q-3.625 2.0625 -15.5 7.4375q-0.5625 3.375 -0.5625 6.4375q0 4.4375 1.40625 6.1875q1.40625 1.75 4.09375 1.75q2.5625 0 5.625 -1.4375q4.125 -1.9375 12.0625 -7.875zm-21.875 -9.0625q10.0625 -4.5 15.125 -9.6875q3.4375 -3.625 3.4375 -7.1875q0 -2.6875 -1.40625 -4.28125q-1.40625 -1.59375 -3.65625 -1.59375q-2.3125 0 -4.5 1.75q-2.9375 2.3125 -4.9375 7.0q-2.875 6.875 -4.0625 14.0z"
		      fill-rule="nonzero"></path>
	</g>
</svg>
